<?xml version="1.0" encoding="UTF-8"?>
<!DOCTYPE svg PUBLIC "-//W3C//DTD SVG 1.1//EN" "http://www.w3.org/Graphics/SVG/1.1/DTD/svg11.dtd">
<!-- Creator: CorelDRAW (Wersja próbna) -->
<svg xmlns="http://www.w3.org/2000/svg" xml:space="preserve" width="177mm" height="66mm" version="1.1" style="shape-rendering:geometricPrecision; text-rendering:geometricPrecision; image-rendering:optimizeQuality; fill-rule:evenodd; clip-rule:evenodd"
viewBox="0 0 17700 6600"
 xmlns:xlink="http://www.w3.org/1999/xlink"
 xmlns:xodm="http://www.corel.com/coreldraw/odm/2003"
 xmlns:serif="http://www.serif.com/">
 <defs>
  <style type="text/css">
   "
    .fil3 {fill:black;fill-rule:nonzero}
    .fil2 {fill:#39B54A;fill-rule:nonzero;fill-opacity:0.690196}
    .fil0 {fill:#39B54A;fill-rule:nonzero;fill-opacity:0.701961}
    .fil1 {fill:#39B54A;fill-rule:nonzero;fill-opacity:0.800000}
   "
  </style>
 </defs>
 <g id="Warstwa_x0020_1">
  <metadata id="CorelCorpID_0Corel-Layer"/>
 </g>
 <g id="Warstwa_x0020_1_0">
  <metadata id="CorelCorpID_1Corel-Layer"/>
  <g id="logofig.svg">
   <g>
    <g>
     <polygon class="fil0" points="10279.18,1685.74 13974.8,2609.64 4273.8,5843.3 "/>
     <polygon class="fil1" points="13974.8,2609.64 15360.65,6305.26 4273.8,5843.3 "/>
    </g>
   </g>
  </g>
  <g id="_279382576">
   <g>
    <polygon class="fil2" points="4083.69,1120.07 4083.69,4173.24 3759.24,4173.24 3759.24,1120.07 2859.28,1120.07 2859.28,763.47 4983.65,763.47 4983.65,1120.07 "/>
   </g>
   <polygon class="fil3" points="3897.77,934.16 3897.77,3987.32 3573.32,3987.32 3573.32,934.16 2673.36,934.16 2673.36,577.55 4797.73,577.55 4797.73,934.16 "/>
   <g>
    <path class="fil0" d="M6292.48 4250.63c-144.11,0 -274.23,-30.84 -390.11,-92.82 -113.22,-61.98 -211.23,-149.91 -293.55,-263.79 -79.9,-117.25 -141.7,-255.55 -185.4,-415.23 -43.69,-162.74 -65.66,-343.49 -65.66,-542.25 0,-201.81 21.97,-384.39 65.66,-547.12 46.35,-162.74 109.36,-301.35 189.27,-415.23 79.9,-117.25 175.02,-206.7 285.82,-268.68 113.22,-61.98 238.27,-92.82 374.66,-92.82 133.98,0 254.93,30.84 363.08,92.82 110.8,61.98 204.71,148.08 281.96,258.91 77.25,107.47 136.39,236 177.67,385.92 41.28,149.91 61.8,314.17 61.8,493.39l0 185.63 -1475.47 0 0 117.24c0,110.83 14.24,213.42 42.49,307.76 28.24,94.34 68.32,175.86 119.74,244.25 54.07,68.39 118.53,122.13 193.12,161.21 77.25,35.72 162.22,53.74 254.92,53.74 133.98,0 249.86,-39.08 347.63,-117.25 97.77,-78.16 172.6,-185.63 224.02,-322.41l227.89 195.4c-59.14,169.45 -158.36,309.29 -297.41,420.12 -136.4,107.47 -303.93,161.21 -502.13,161.21zm-19.31 -2315.53c-84.97,0 -163.43,19.55 -235.61,58.63 -72.18,39.08 -135.19,92.81 -189.26,161.2 -51.42,68.39 -92.7,149.91 -123.6,244.26 -28.25,91.29 -42.49,192.04 -42.49,302.87l0 34.2 1143.3 0 0 -53.74c0,-110.83 -14.24,-211.58 -42.49,-302.87 -25.83,-91.29 -63.01,-169.45 -112.01,-234.49 -46.35,-68.39 -104.29,-120.6 -173.81,-156.32 -66.87,-35.72 -141.71,-53.74 -224.03,-53.74z"/>
   </g>
   <path class="fil3" d="M6087.8 4045.94c-144.12,0 -274.23,-30.83 -390.11,-92.81 -113.22,-61.98 -211.23,-149.91 -293.55,-263.8 -79.9,-117.24 -141.7,-255.55 -185.4,-415.23 -43.69,-162.73 -65.66,-343.48 -65.66,-542.24 0,-201.81 21.97,-384.39 65.66,-547.13 46.35,-162.73 109.36,-301.34 189.27,-415.23 79.9,-117.24 175.01,-206.7 285.82,-268.67 113.22,-61.98 238.27,-92.82 374.66,-92.82 133.98,0 254.93,30.84 363.07,92.82 110.81,61.97 204.72,148.07 281.97,258.9 77.25,107.48 136.39,236.01 177.67,385.92 41.28,149.91 61.8,314.17 61.8,493.4l0 185.63 -1475.47 0 0 117.24c0,110.83 14.24,213.42 42.49,307.76 28.24,94.34 68.32,175.86 119.73,244.25 54.08,68.39 118.53,122.13 193.13,161.21 77.25,35.72 162.22,53.73 254.92,53.73 133.98,0 249.86,-39.08 347.63,-117.24 97.77,-78.16 172.6,-185.63 224.02,-322.41l227.89 195.4c-59.15,169.45 -158.36,309.29 -297.41,420.12 -136.4,107.47 -303.93,161.2 -502.13,161.2zm-19.31 -2315.52c-84.97,0 -163.43,19.54 -235.61,58.62 -72.18,39.08 -135.19,92.82 -189.26,161.21 -51.42,68.39 -92.7,149.91 -123.6,244.25 -28.25,91.29 -42.49,192.05 -42.49,302.88l0 34.19 1143.3 0 0 -53.73c0,-110.83 -14.25,-211.59 -42.49,-302.88 -25.83,-91.29 -63.01,-169.45 -112.01,-234.48 -46.35,-68.39 -104.29,-120.6 -173.81,-156.32 -66.87,-35.72 -141.71,-53.74 -224.03,-53.74z"/>
   <g>
    <path class="fil0" d="M8571.57 4223.81c-208.57,0 -388.9,-43.97 -540.75,-131.9 -149.43,-91.29 -276.89,-211.59 -382.38,-361.5l208.57 -229.59c95.35,127.01 199.64,224.71 312.86,293.1 113.22,68.39 249.86,102.59 409.43,102.59 154.49,0 280.75,-34.2 378.52,-102.59 100.42,-71.75 150.64,-182.27 150.64,-332.18 0,-65.04 -10.38,-118.77 -30.9,-161.21 -18.11,-45.49 -43.7,-81.52 -77.25,-107.47 -33.56,-25.95 -70.74,-45.5 -112.02,-58.62 -41.28,-16.19 -84.97,-29.31 -131.32,-39.08l-312.86 -58.63c-69.53,-13.12 -145.57,-30.83 -227.89,-53.73 -79.9,-22.9 -153.29,-58.62 -220.16,-107.47 -66.87,-52.21 -123.6,-120.6 -169.95,-205.17 -43.69,-84.58 -65.66,-195.41 -65.66,-332.19 0,-127.01 19.31,-236.01 57.93,-327.3 41.29,-94.34 97.77,-172.5 169.95,-234.48 72.18,-65.03 157.16,-112.36 254.93,-141.67 97.77,-32.67 204.71,-48.85 320.59,-48.85 180.33,0 336.03,35.72 467.36,107.47 133.98,71.75 248.4,170.98 343.76,297.99l-200.85 239.37c-23.18,-35.72 -52.87,-71.75 -88.84,-107.47 -33.55,-39.08 -76.04,-73.28 -127.46,-102.59 -49.01,-32.67 -106.94,-58.62 -173.81,-78.16 -66.87,-19.54 -144.12,-29.31 -231.75,-29.31 -157.16,0 -278.1,34.2 -363.08,102.59 -82.32,68.39 -123.6,167.62 -123.6,297.99 0,65.03 8.94,120.6 27.04,166.09 20.52,42.44 47.56,76.63 81.11,102.58 33.56,25.96 70.74,47.33 112.02,63.51 43.69,13.13 87.63,24.43 131.32,34.2l312.86 58.62c72.18,13.12 147.98,30.83 227.89,53.73 79.9,22.9 153.29,60.15 220.16,112.36 66.87,48.85 122.39,115.71 166.09,200.29 46.35,84.57 69.52,195.4 69.52,332.18 0,250.67 -77.25,444.54 -231.75,581.32 -151.84,136.78 -355.35,205.18 -610.27,205.18z"/>
   </g>
   <path class="fil3" d="M8393.71 4045.94c-208.58,0 -388.91,-43.96 -540.75,-131.89 -149.43,-91.29 -276.89,-211.59 -382.39,-361.5l208.58 -229.6c95.35,127.02 199.64,224.72 312.86,293.11 113.22,68.39 249.85,102.59 409.42,102.59 154.5,0 280.76,-34.2 378.53,-102.59 100.42,-71.75 150.63,-182.28 150.63,-332.19 0,-65.03 -10.38,-118.76 -30.9,-161.2 -18.1,-45.49 -43.69,-81.52 -77.25,-107.47 -33.55,-25.96 -70.73,-45.5 -112.01,-58.63 -41.28,-16.18 -84.97,-29.31 -131.32,-39.08l-312.86 -58.62c-69.53,-13.12 -145.57,-30.83 -227.89,-53.73 -79.91,-22.9 -153.29,-58.62 -220.16,-107.47 -66.87,-52.21 -123.6,-120.6 -169.95,-205.18 -43.7,-84.57 -65.66,-195.4 -65.66,-332.18 0,-127.01 19.31,-236.01 57.93,-327.3 41.28,-94.34 97.77,-172.5 169.95,-234.48 72.18,-65.04 157.16,-112.36 254.93,-141.67 97.77,-32.67 204.71,-48.85 320.58,-48.85 180.33,0 336.04,35.72 467.36,107.47 133.98,71.75 248.41,170.98 343.77,297.99l-200.85 239.37c-23.18,-35.72 -52.87,-71.75 -88.84,-107.47 -33.56,-39.08 -76.04,-73.28 -127.46,-102.59 -49.01,-32.67 -106.95,-58.62 -173.81,-78.16 -66.87,-19.54 -144.12,-29.31 -231.75,-29.31 -157.16,0 -278.1,34.19 -363.08,102.59 -82.32,68.39 -123.6,167.61 -123.6,297.98 0,65.04 8.93,120.6 27.04,166.1 20.52,42.44 47.56,76.63 81.11,102.58 33.56,25.95 70.73,47.33 112.01,63.51 43.7,13.13 87.63,24.42 131.33,34.19l312.86 58.62c72.18,13.13 147.98,30.84 227.89,53.74 79.9,22.9 153.29,60.15 220.16,112.36 66.87,48.85 122.39,115.71 166.09,200.28 46.35,84.58 69.52,195.41 69.52,332.19 0,250.66 -77.25,444.54 -231.75,581.32 -151.84,136.78 -355.35,205.17 -610.27,205.17z"/>
   <g>
    <path class="fil0" d="M10988.31 4191.05c-151.84,0 -263.86,-53.74 -336.04,-161.21 -69.52,-107.47 -104.28,-245.78 -104.28,-415.23l0 -1612.07 -664.35 0 0 -332.19 494.4 0c66.87,0 113.22,-16.18 139.05,-48.85 28.24,-35.72 42.48,-96.17 42.48,-180.75l0 -659.48 297.42 0 0 889.08 907.68 0 0 332.19 -907.68 0 0 1856.32 907.68 0 0 332.19 -776.36 0z"/>
   </g>
   <path class="fil3" d="M10784.59 3987.32c-151.85,0 -263.86,-53.73 -336.04,-161.2 -69.52,-107.47 -104.28,-245.78 -104.28,-415.23l0 -1612.08 -664.35 0 0 -332.18 494.4 0c66.87,0 113.21,-16.18 139.05,-48.85 28.24,-35.72 42.48,-96.18 42.48,-180.75l0 -659.48 297.41 0 0 889.08 907.69 0 0 332.18 -907.69 0 0 1856.33 907.69 0 0 332.18 -776.36 0z"/>
   <path class="fil3" d="M13005.52 4045.94c-139.05,0 -265.31,-30.83 -378.52,-92.81 -110.81,-61.98 -205.92,-149.91 -285.83,-263.8 -77.25,-117.24 -136.39,-255.55 -177.67,-415.23 -41.28,-162.73 -61.8,-345.31 -61.8,-547.12 0,-198.76 20.52,-379.51 61.8,-542.25 41.28,-162.73 100.42,-301.34 177.67,-415.23 79.91,-117.24 175.02,-206.7 285.83,-268.67 113.21,-61.98 239.47,-92.82 378.52,-92.82 139.05,0 263.86,30.84 374.66,92.82 113.22,61.97 208.58,151.43 285.82,268.67 79.91,113.89 140.26,252.5 181.54,415.23 41.28,162.74 61.8,343.49 61.8,542.25 0,201.81 -20.52,384.39 -61.8,547.12 -41.28,159.68 -101.63,297.99 -181.54,415.23 -77.24,113.89 -172.6,201.82 -285.82,263.8 -110.8,61.98 -235.61,92.81 -374.66,92.81zm0 -337.07c172.6,0 311.65,-65.03 417.15,-195.4 105.49,-130.37 158.36,-332.18 158.36,-605.75l0 -361.49c0,-273.56 -52.87,-475.38 -158.36,-605.75 -105.5,-130.37 -244.55,-195.4 -417.15,-195.4 -172.61,0 -311.65,65.03 -417.15,195.4 -105.49,130.37 -158.36,332.19 -158.36,605.75l0 361.49c0,273.57 52.87,475.38 158.36,605.75 105.5,130.37 244.54,195.4 417.15,195.4z"/>
  </g>
 </g>
</svg>
