<?xml version="1.0" encoding="UTF-8" standalone="no"?>
<!DOCTYPE svg PUBLIC "-//W3C//DTD SVG 1.1//EN" "http://www.w3.org/Graphics/SVG/1.1/DTD/svg11.dtd">
<svg width="100%" height="100%" viewBox="0 0 783 280" version="1.1" xmlns="http://www.w3.org/2000/svg" xmlns:xlink="http://www.w3.org/1999/xlink" xml:space="preserve" xmlns:serif="http://www.serif.com/" style="fill-rule:evenodd;clip-rule:evenodd;stroke-linejoin:round;stroke-miterlimit:2;">
    <g transform="matrix(1.15534,0,0,1.15534,-67.1456,-12)">
        <g transform="matrix(7.79076,0,0,9.85333,-799.022,-1354.42)">
            <path d="M182.132,143.842C181.759,143.842 181.497,143.767 181.348,143.618C181.199,143.458 181.124,143.261 181.124,143.026L181.124,142.77C181.124,142.535 181.199,142.343 181.348,142.194C181.497,142.034 181.759,141.954 182.132,141.954C182.505,141.954 182.767,142.034 182.916,142.194C183.065,142.343 183.14,142.535 183.14,142.77L183.14,143.026C183.14,143.261 183.065,143.458 182.916,143.618C182.767,143.767 182.505,143.842 182.132,143.842ZM181.49,150.07L181.492,146.754L178.516,146.754L178.516,145.666L182.772,145.666L182.772,150.345L182.772,150.322L181.49,150.07Z" style="fill-rule:nonzero;"/>
        </g>
        <g transform="matrix(7.79076,0,0,9.85333,-799.022,-1354.42)">
            <path d="M158.1,145.666L159.236,145.666L160.18,152.802L160.324,152.802L161.732,145.666L163.14,145.666L164.161,150.878L164.994,150.43L165.636,145.666L166.74,145.666L165.861,149.964L163.304,151.338L162.5,147.01L162.372,147.01L161.413,152.4L159.364,153.516L158.1,145.666Z" style="fill-rule:nonzero;"/>
        </g>
        <g id="logofig.svg" transform="matrix(2.98167,0,0,2.98167,513.658,180.565)">
            <g transform="matrix(1,0,0,1,-62.5,-27.5)">
                <g transform="matrix(1,0,0,1,-49,-4)">
                    <path d="M115,5L155,15L50,50L115,5Z" style="fill:rgb(57,181,74);fill-opacity:0.7;fill-rule:nonzero;"/>
                    <path d="M155,15L170,55L50,50L155,15Z" style="fill:rgb(57,181,74);fill-opacity:0.8;fill-rule:nonzero;"/>
                </g>
            </g>
        </g>
        <g transform="matrix(7.79076,0,0,9.85333,-799.022,-1354.42)">
            <path d="M168.788,148.34L168.788,145.666L170.068,145.666L170.068,147.01L170.132,147.01C170.217,146.807 170.324,146.615 170.452,146.434C170.58,146.242 170.735,146.077 170.916,145.938C171.108,145.799 171.332,145.687 171.588,145.602C171.844,145.517 172.143,145.474 172.484,145.474C173.348,145.474 174.041,145.751 174.564,146.306C175.087,146.85 175.348,147.623 175.348,148.626L175.348,153.415L174.068,153.719L174.068,148.85C174.068,148.093 173.903,147.533 173.572,147.17C173.241,146.797 172.756,146.61 172.116,146.61C171.86,146.61 171.609,146.642 171.364,146.706C171.119,146.77 170.9,146.866 170.708,146.994C170.516,147.122 170.361,147.287 170.244,147.49C170.173,147.613 170.096,147.687 170.067,147.687C170.049,147.686 170.068,147.683 170.068,147.687L169.903,147.724L168.788,148.34Z" style="fill-rule:nonzero;"/>
        </g>
        <g transform="matrix(7.79076,0,0,9.85333,-799.022,-1354.42)">
            <g transform="matrix(1,0,0,1,0.770143,0.608931)">
                <path d="M115.092,143.922L115.092,153.922L113.748,153.922L113.748,143.922L110.02,143.922L110.02,142.754L118.82,142.754L118.82,143.922L115.092,143.922Z" style="fill:rgb(57,181,74);fill-opacity:0.7;fill-rule:nonzero;"/>
            </g>
            <path d="M115.092,143.922L115.092,153.922L113.748,153.922L113.748,143.922L110.02,143.922L110.02,142.754L118.82,142.754L118.82,143.922L115.092,143.922Z" style="fill-rule:nonzero;"/>
            <path d="M124.164,154.114C123.567,154.114 123.028,154.013 122.548,153.81C122.079,153.607 121.673,153.319 121.332,152.946C121.001,152.562 120.745,152.109 120.564,151.586C120.383,151.053 120.292,150.461 120.292,149.81C120.292,149.149 120.383,148.551 120.564,148.018C120.756,147.485 121.017,147.031 121.348,146.658C121.679,146.274 122.073,145.981 122.532,145.778C123.001,145.575 123.519,145.474 124.084,145.474C124.639,145.474 125.14,145.575 125.588,145.778C126.047,145.981 126.436,146.263 126.756,146.626C127.076,146.978 127.321,147.399 127.492,147.89C127.663,148.381 127.748,148.919 127.748,149.506L127.748,150.114L121.636,150.114L121.636,150.498C121.636,150.861 121.695,151.197 121.812,151.506C121.929,151.815 122.095,152.082 122.308,152.306C122.532,152.53 122.799,152.706 123.108,152.834C123.428,152.951 123.78,153.01 124.164,153.01C124.719,153.01 125.199,152.882 125.604,152.626C126.009,152.37 126.319,152.018 126.532,151.57L127.476,152.21C127.231,152.765 126.82,153.223 126.244,153.586C125.679,153.938 124.985,154.114 124.164,154.114ZM124.084,146.53C123.732,146.53 123.407,146.594 123.108,146.722C122.809,146.85 122.548,147.026 122.324,147.25C122.111,147.474 121.94,147.741 121.812,148.05C121.695,148.349 121.636,148.679 121.636,149.042L121.636,149.154L126.372,149.154L126.372,148.978C126.372,148.615 126.313,148.285 126.196,147.986C126.089,147.687 125.935,147.431 125.732,147.218C125.54,146.994 125.3,146.823 125.012,146.706C124.735,146.589 124.425,146.53 124.084,146.53Z" style="fill-rule:nonzero;"/>
            <path d="M133.716,154.114C132.852,154.114 132.105,153.97 131.476,153.682C130.857,153.383 130.329,152.989 129.892,152.498L130.756,151.746C131.151,152.162 131.583,152.482 132.052,152.706C132.521,152.93 133.087,153.042 133.748,153.042C134.388,153.042 134.911,152.93 135.316,152.706C135.732,152.471 135.94,152.109 135.94,151.618C135.94,151.405 135.897,151.229 135.812,151.09C135.737,150.941 135.631,150.823 135.492,150.738C135.353,150.653 135.199,150.589 135.028,150.546C134.857,150.493 134.676,150.45 134.484,150.418L133.188,150.226C132.9,150.183 132.585,150.125 132.244,150.05C131.913,149.975 131.609,149.858 131.332,149.698C131.055,149.527 130.82,149.303 130.628,149.026C130.447,148.749 130.356,148.386 130.356,147.938C130.356,147.522 130.436,147.165 130.596,146.866C130.767,146.557 131.001,146.301 131.3,146.098C131.599,145.885 131.951,145.73 132.356,145.634C132.761,145.527 133.204,145.474 133.684,145.474C134.431,145.474 135.076,145.591 135.62,145.826C136.175,146.061 136.649,146.386 137.044,146.802L136.212,147.586C136.116,147.469 135.993,147.351 135.844,147.234C135.705,147.106 135.529,146.994 135.316,146.898C135.113,146.791 134.873,146.706 134.596,146.642C134.319,146.578 133.999,146.546 133.636,146.546C132.985,146.546 132.484,146.658 132.132,146.882C131.791,147.106 131.62,147.431 131.62,147.858C131.62,148.071 131.657,148.253 131.732,148.402C131.817,148.541 131.929,148.653 132.068,148.738C132.207,148.823 132.361,148.893 132.532,148.946C132.713,148.989 132.895,149.026 133.076,149.058L134.372,149.25C134.671,149.293 134.985,149.351 135.316,149.426C135.647,149.501 135.951,149.623 136.228,149.794C136.505,149.954 136.735,150.173 136.916,150.45C137.108,150.727 137.204,151.09 137.204,151.538C137.204,152.359 136.884,152.994 136.244,153.442C135.615,153.89 134.772,154.114 133.716,154.114Z" style="fill-rule:nonzero;"/>
            <path d="M143.62,153.922C142.991,153.922 142.527,153.746 142.228,153.394C141.94,153.042 141.796,152.589 141.796,152.034L141.796,146.754L139.044,146.754L139.044,145.666L141.092,145.666C141.369,145.666 141.561,145.613 141.668,145.506C141.785,145.389 141.844,145.191 141.844,144.914L141.844,142.754L143.076,142.754L143.076,145.666L146.836,145.666L146.836,146.754L143.076,146.754L143.076,152.834L146.836,152.834L146.836,153.922L143.62,153.922Z" style="fill-rule:nonzero;"/>
            <path d="M152.82,154.114C152.244,154.114 151.721,154.013 151.252,153.81C150.793,153.607 150.399,153.319 150.068,152.946C149.748,152.562 149.503,152.109 149.332,151.586C149.161,151.053 149.076,150.455 149.076,149.794C149.076,149.143 149.161,148.551 149.332,148.018C149.503,147.485 149.748,147.031 150.068,146.658C150.399,146.274 150.793,145.981 151.252,145.778C151.721,145.575 152.244,145.474 152.82,145.474C153.396,145.474 153.913,145.575 154.372,145.778C154.841,145.981 155.236,146.274 155.556,146.658C155.887,147.031 156.137,147.485 156.308,148.018C156.479,148.551 156.564,149.143 156.564,149.794C156.564,150.455 156.479,151.053 156.308,151.586C156.137,152.109 155.887,152.562 155.556,152.946C155.236,153.319 154.841,153.607 154.372,153.81C153.913,154.013 153.396,154.114 152.82,154.114ZM152.82,153.01C153.535,153.01 154.111,152.797 154.548,152.37C154.985,151.943 155.204,151.282 155.204,150.386L155.204,149.202C155.204,148.306 154.985,147.645 154.548,147.218C154.111,146.791 153.535,146.578 152.82,146.578C152.105,146.578 151.529,146.791 151.092,147.218C150.655,147.645 150.436,148.306 150.436,149.202L150.436,150.386C150.436,151.282 150.655,151.943 151.092,152.37C151.529,152.797 152.105,153.01 152.82,153.01Z" style="fill-rule:nonzero;"/>
            <path d="M188.1,142.082L189.38,142.082L189.38,149.554L189.444,149.554L190.884,148.194L193.636,145.666L195.204,145.666L191.78,148.898L195.604,153.922L194.02,153.922L190.804,149.634L189.38,150.93L189.38,153.922L188.1,153.922L188.1,142.082Z" style="fill-rule:nonzero;"/>
        </g>
    </g>
</svg>
